<svg xmlns="http://www.w3.org/2000/svg" width="24.657" height="30.821" viewBox="0 0 24.657 30.821">
  <path id="bell" d="M160-853.8v-2.312h3.082v-11.712a9.464,9.464,0,0,1,1.907-5.8,8.163,8.163,0,0,1,5.028-3.217v-.848a2.229,2.229,0,0,1,.674-1.637,2.229,2.229,0,0,1,1.637-.674,2.229,2.229,0,0,1,1.637.674,2.229,2.229,0,0,1,.674,1.637v.848a8.163,8.163,0,0,1,5.028,3.217,9.464,9.464,0,0,1,1.907,5.8v11.712h3.082v2.312ZM172.329-865.437Zm0,16.258a2.968,2.968,0,0,1-2.177-.905,2.968,2.968,0,0,1-.905-2.177h6.164a2.968,2.968,0,0,1-.905,2.177A2.968,2.968,0,0,1,172.329-849.179Zm-6.935-6.935h13.87v-11.712a6.688,6.688,0,0,0-2.023-4.912,6.688,6.688,0,0,0-4.912-2.023,6.688,6.688,0,0,0-4.912,2.023,6.688,6.688,0,0,0-2.023,4.912Z" transform="translate(-160 880)"/>
</svg>
