<svg xmlns="http://www.w3.org/2000/svg" width="12.81" height="14.686" viewBox="0 0 12.81 14.686">
  <g id="Group_150" data-name="Group 150" transform="translate(-2.5 -1.5)">
    <path id="Path_23" data-name="Path 23" d="M3,6H14.81" transform="translate(0 -1.263)" fill="none" stroke="#002edb" stroke-linecap="round" stroke-linejoin="round" stroke-width="1"/>
    <path id="Path_24" data-name="Path 24" d="M7.027,4.737V3.369a1.377,1.377,0,0,1,.4-.968A1.343,1.343,0,0,1,8.378,2h2.7a1.343,1.343,0,0,1,.956.4,1.377,1.377,0,0,1,.4.968V4.737m2.027,0v9.58a1.377,1.377,0,0,1-.4.968,1.343,1.343,0,0,1-.956.4H6.351a1.343,1.343,0,0,1-.956-.4,1.377,1.377,0,0,1-.4-.968V4.737Z" transform="translate(-0.825 0)" fill="none" stroke="#002edb" stroke-linecap="round" stroke-linejoin="round" stroke-width="1"/>
    <path id="Path_25" data-name="Path 25" d="M10,11v3.526" transform="translate(-2.407 -2.469)" fill="none" stroke="#002edb" stroke-linecap="round" stroke-linejoin="round" stroke-width="1"/>
    <path id="Path_26" data-name="Path 26" d="M14,11v3.526" transform="translate(-3.783 -2.469)" fill="none" stroke="#002edb" stroke-linecap="round" stroke-linejoin="round" stroke-width="1"/>
  </g>
</svg>
