<svg width="24" height="24" viewBox="0 0 24 24" fill="none" xmlns="http://www.w3.org/2000/svg">
<path d="M18.4502 1.87501L18.4516 1.87499C19.9404 1.87579 21.2546 2.75091 21.8363 4.127C22.1187 4.79375 22.1961 5.52952 22.0589 6.2405C21.9216 6.95144 21.5758 7.60539 21.0655 8.11896C18.8674 10.3341 16.6623 12.5424 14.4502 14.7438C13.9309 15.2633 13.4097 15.7802 12.8887 16.2968C11.6156 17.5592 10.3441 18.82 9.10608 20.1143L9.01575 20.0279L9.10608 20.1143C8.22348 21.0369 7.21333 21.5512 5.94879 21.6717M18.4502 1.87501L5.93694 21.5472M18.4502 1.87501C17.4116 1.88609 16.5282 2.26799 15.7959 3.00134M18.4502 1.87501L18.4515 2M5.94879 21.6717L5.93694 21.5472M5.94879 21.6717C5.9488 21.6717 5.94881 21.6717 5.94882 21.6717L5.93694 21.5472M5.94879 21.6717C5.19605 21.7435 4.44923 21.8574 3.69841 21.9719C3.38592 22.0195 3.07273 22.0673 2.75813 22.1122C2.4875 22.1508 2.2452 22.1032 2.07914 21.9523C1.91071 21.7993 1.8482 21.5653 1.88546 21.2921L2.00931 21.309M5.93694 21.5472C5.18051 21.6194 4.42816 21.7342 3.67584 21.8489C3.36415 21.8964 3.05246 21.9439 2.74048 21.9884C2.24308 22.0594 1.9422 21.801 2.00932 21.309C2.20098 19.9048 2.39391 18.4983 2.62411 17.0992C2.73461 16.4275 3.10466 15.8738 3.58777 15.3915C5.31943 13.6647 7.04896 11.9351 8.77637 10.2026C11.1457 7.83177 13.515 5.4608 15.8844 3.08966M2.00931 21.309L2.00931 21.309L2.00931 21.309ZM2.00931 21.309L1.88546 21.2921C2.0771 19.8881 2.27025 18.48 2.50077 17.0789C2.61702 16.3723 3.00568 15.7959 3.49945 15.303L3.4995 15.303C5.23108 13.5763 6.96053 11.8468 8.68785 10.1143L8.68795 10.1142C11.0573 7.74342 13.4266 5.37246 15.7959 3.00134M15.7959 3.00134L15.8844 3.08966M15.7959 3.00134C15.7959 3.00133 15.7959 3.00132 15.796 3.0013L15.8844 3.08966M15.8844 3.08966C16.5941 2.37888 17.4465 2.01072 18.4515 2M18.4515 2C19.8898 2.00077 21.159 2.84558 21.7212 4.17574C21.9939 4.81964 22.0687 5.53019 21.9361 6.2168C21.8035 6.9034 21.4696 7.53495 20.9768 8.03091C18.7788 10.246 16.5738 12.4541 14.3618 14.6554L18.4515 2ZM20.503 4.99553L20.6238 4.96337L20.503 4.99555C20.6382 5.50284 20.5985 5.94407 20.4353 6.33584C20.2837 6.69962 20.0228 7.02736 19.6829 7.32711L16.6651 4.3161C17.2391 3.64697 17.9392 3.27535 18.85 3.45211L18.8501 3.45211C19.7124 3.61917 20.2765 4.14468 20.503 4.99553ZM4.14159 16.9731C5.11979 17.9537 6.05285 18.8883 7.01541 19.8518C6.47529 20.0352 5.91579 20.1262 5.33841 20.2001C5.19819 20.218 5.05667 20.235 4.91413 20.252C4.46742 20.3055 4.01074 20.3602 3.55322 20.4504C3.63425 20.0087 3.68867 19.5688 3.7421 19.1368C3.76179 18.9775 3.78135 18.8194 3.80207 18.6626C3.87834 18.0853 3.97059 17.5225 4.14159 16.9731ZM15.5123 5.51262L18.4855 8.48283L8.21775 18.7449L5.2511 15.778L15.5123 5.51262Z" fill="#002EDB" stroke="#002EDB" stroke-width="0.25"/>
</svg>
