<svg xmlns="http://www.w3.org/2000/svg" width="16" height="16" viewBox="0 0 16 16">
  <path id="email" d="M88-864a7.79,7.79,0,0,1-3.12-.63,8.08,8.08,0,0,1-2.54-1.71,8.079,8.079,0,0,1-1.71-2.54A7.79,7.79,0,0,1,80-872a7.79,7.79,0,0,1,.63-3.12,8.078,8.078,0,0,1,1.71-2.54,8.08,8.08,0,0,1,2.54-1.71A7.791,7.791,0,0,1,88-880a7.791,7.791,0,0,1,3.12.63,8.08,8.08,0,0,1,2.54,1.71,8.078,8.078,0,0,1,1.71,2.54A7.79,7.79,0,0,1,96-872v1.06a2.537,2.537,0,0,1-.79,1.89,2.661,2.661,0,0,1-1.93.77,2.793,2.793,0,0,1-1.36-.35,2.377,2.377,0,0,1-.98-.99,3.163,3.163,0,0,1-1.3,1.01,4.167,4.167,0,0,1-1.64.33,3.624,3.624,0,0,1-2.65-1.08A3.575,3.575,0,0,1,84.26-872a3.641,3.641,0,0,1,1.09-2.66,3.591,3.591,0,0,1,2.65-1.1,3.591,3.591,0,0,1,2.65,1.1A3.641,3.641,0,0,1,91.74-872v1.06a1.366,1.366,0,0,0,.45,1.04,1.54,1.54,0,0,0,1.09.42,1.515,1.515,0,0,0,1.07-.42,1.366,1.366,0,0,0,.45-1.04V-872a6.56,6.56,0,0,0-1.98-4.82A6.56,6.56,0,0,0,88-878.8a6.56,6.56,0,0,0-4.82,1.98A6.56,6.56,0,0,0,81.2-872a6.56,6.56,0,0,0,1.98,4.82A6.56,6.56,0,0,0,88-865.2h4.28v1.2Zm0-5.48a2.467,2.467,0,0,0,1.8-.73,2.417,2.417,0,0,0,.74-1.79,2.474,2.474,0,0,0-.74-1.82,2.45,2.45,0,0,0-1.8-.74,2.45,2.45,0,0,0-1.8.74,2.474,2.474,0,0,0-.74,1.82,2.417,2.417,0,0,0,.74,1.79A2.467,2.467,0,0,0,88-869.48Z" transform="translate(-80 880)" fill="#002edb"/>
</svg>
