<svg xmlns="http://www.w3.org/2000/svg" width="8.554" height="16.269" viewBox="0 0 8.554 16.269">
  <path id="link_FILL0_wght400_GRAD0_opsz24" d="M87.2-672H84a3.855,3.855,0,0,1-2.83-1.17A3.855,3.855,0,0,1,80-676a3.855,3.855,0,0,1,1.17-2.83A3.855,3.855,0,0,1,84-680h3.2v1.6H84a2.314,2.314,0,0,0-1.7.7,2.314,2.314,0,0,0-.7,1.7,2.314,2.314,0,0,0,.7,1.7,2.314,2.314,0,0,0,1.7.7h3.2Zm-2.4-3.2v-1.6h6.4v1.6Zm4,3.2v-1.6H92a2.314,2.314,0,0,0,1.7-.7,2.314,2.314,0,0,0,.7-1.7,2.314,2.314,0,0,0-.7-1.7,2.314,2.314,0,0,0-1.7-.7H88.8V-680H92a3.855,3.855,0,0,1,2.83,1.17A3.855,3.855,0,0,1,96-676a3.855,3.855,0,0,1-1.17,2.83A3.855,3.855,0,0,1,92-672Z" transform="translate(676.794 119.673) rotate(-88)" fill="#fff"/>
</svg>
