<svg xmlns="http://www.w3.org/2000/svg" width="17.921" height="23.034" viewBox="0 0 17.921 23.034">
  <path id="Path_4" data-name="Path 4" d="M1159.9,45.248l-1.52-1.524V37.818c0-3.626-1.94-6.662-5.32-7.465v-.8a1.77,1.77,0,1,0-3.54,0v.8c-3.39.8-5.32,3.827-5.32,7.465v5.906l-1.52,1.524a1.184,1.184,0,0,0,.83,2.02h15.55A1.18,1.18,0,0,0,1159.9,45.248Zm-3.88-.343h-9.45V37.818c0-2.93,1.78-5.316,4.72-5.316s4.73,2.386,4.73,5.316Zm-4.73,5.906a2.367,2.367,0,0,0,2.36-2.362h-4.72A2.36,2.36,0,0,0,1151.29,50.812Z" transform="translate(-1142.333 -27.777)" fill="#002edb"/>
</svg>
