<svg xmlns="http://www.w3.org/2000/svg" width="13.59" height="17.838" viewBox="0 0 13.59 17.838">
  <path id="password" d="M161.274-902.162a1.227,1.227,0,0,1-.9-.374,1.227,1.227,0,0,1-.374-.9v-9.216a1.227,1.227,0,0,1,.374-.9,1.227,1.227,0,0,1,.9-.374h1.486v-2.039a3.888,3.888,0,0,1,1.181-2.855A3.892,3.892,0,0,1,166.8-920a3.885,3.885,0,0,1,2.854,1.18,3.891,3.891,0,0,1,1.179,2.855v2.039h1.486a1.227,1.227,0,0,1,.9.374,1.227,1.227,0,0,1,.374.9v9.216a1.227,1.227,0,0,1-.374.9,1.227,1.227,0,0,1-.9.374Zm0-1.274h11.042v-9.216H161.274Zm5.525-2.973a1.589,1.589,0,0,0,1.154-.468A1.518,1.518,0,0,0,168.43-908a1.665,1.665,0,0,0-.481-1.157,1.521,1.521,0,0,0-1.157-.52,1.51,1.51,0,0,0-1.154.52,1.684,1.684,0,0,0-.478,1.168,1.5,1.5,0,0,0,.481,1.115A1.6,1.6,0,0,0,166.8-906.41Zm-2.764-7.517h5.521v-2.039a2.663,2.663,0,0,0-.8-1.955,2.659,2.659,0,0,0-1.954-.805,2.667,2.667,0,0,0-1.956.805,2.659,2.659,0,0,0-.807,1.955Zm-2.761,10.49v0Z" transform="translate(-160 920)" fill="#002edb"/>
</svg>
