<svg xmlns="http://www.w3.org/2000/svg" width="22.357" height="22.357" viewBox="0 0 22.357 22.357">
  <path id="search" d="M140.991-818.643l-8.167-8.167a6.845,6.845,0,0,1-2.172,1.258,7.683,7.683,0,0,1-2.641.45,7.729,7.729,0,0,1-5.685-2.329,7.663,7.663,0,0,1-2.326-5.62,7.659,7.659,0,0,1,2.329-5.62A7.677,7.677,0,0,1,127.965-841a7.626,7.626,0,0,1,5.62,2.329,7.69,7.69,0,0,1,2.313,5.625,7.732,7.732,0,0,1-.435,2.573,7.882,7.882,0,0,1-1.3,2.329l8.2,8.135Zm-13.011-8.322a5.807,5.807,0,0,0,4.289-1.785,5.9,5.9,0,0,0,1.766-4.3,5.894,5.894,0,0,0-1.766-4.3,5.807,5.807,0,0,0-4.289-1.785,5.9,5.9,0,0,0-4.333,1.785,5.864,5.864,0,0,0-1.784,4.3,5.864,5.864,0,0,0,1.784,4.3A5.9,5.9,0,0,0,127.98-826.965Z" transform="translate(-120 841)" fill="#b0b0b0"/>
</svg>
