<svg width="24" height="24" viewBox="0 0 24 24" fill="none" xmlns="http://www.w3.org/2000/svg">
<path d="M17.7525 15.945C16.9802 14.7557 15.975 13.7352 14.7975 12.945L13.35 12L14.7975 11.0325C16.2472 10.0724 17.4359 8.76736 18.2566 7.23446C19.0774 5.70155 19.5047 3.98881 19.5 2.25C19.5 2.05109 19.421 1.86032 19.2803 1.71967C19.1397 1.57902 18.9489 1.5 18.75 1.5C18.5511 1.5 18.3603 1.57902 18.2197 1.71967C18.079 1.86032 18 2.05109 18 2.25C18 2.505 18 2.7525 17.955 3H6.045C6 2.7525 6 2.505 6 2.25C6 2.05109 5.92098 1.86032 5.78033 1.71967C5.63968 1.57902 5.44891 1.5 5.25 1.5C5.05109 1.5 4.86032 1.57902 4.71967 1.71967C4.57902 1.86032 4.5 2.05109 4.5 2.25C4.50276 4.17985 5.03734 6.07161 6.045 7.7175C6.08125 7.84602 6.15116 7.96253 6.2475 8.055C7.01982 9.24428 8.02503 10.2648 9.2025 11.055L10.65 12L9.2025 12.9675C8.02503 13.7577 7.01982 14.7782 6.2475 15.9675C6.15116 16.06 6.08125 16.1765 6.045 16.305C5.04131 17.9444 4.50689 19.8278 4.5 21.75C4.5 21.9489 4.57902 22.1397 4.71967 22.2803C4.86032 22.421 5.05109 22.5 5.25 22.5C5.44891 22.5 5.63968 22.421 5.78033 22.2803C5.92098 22.1397 6 21.9489 6 21.75C6 21.495 6 21.2475 6.045 21H15.75C15.9489 21 16.1397 20.921 16.2803 20.7803C16.421 20.6397 16.5 20.4489 16.5 20.25C16.5 20.0511 16.421 19.8603 16.2803 19.7197C16.1397 19.579 15.9489 19.5 15.75 19.5H6.285C6.48858 18.7115 6.79896 17.9545 7.2075 17.25H16.7925C17.5804 18.6191 17.9967 20.1704 18 21.75C18 21.9489 18.079 22.1397 18.2197 22.2803C18.3603 22.421 18.5511 22.5 18.75 22.5C18.9489 22.5 19.1397 22.421 19.2803 22.2803C19.421 22.1397 19.5 21.9489 19.5 21.75C19.4972 19.8201 18.9627 17.9284 17.955 16.2825C17.9188 16.154 17.8488 16.0375 17.7525 15.945ZM10.035 9.7875C9.37583 9.3546 8.77579 8.83776 8.25 8.25H14.25C14.4489 8.25 14.6397 8.17098 14.7803 8.03033C14.921 7.88968 15 7.69891 15 7.5C15 7.30109 14.921 7.11032 14.7803 6.96967C14.6397 6.82902 14.4489 6.75 14.25 6.75H7.2075C6.79896 6.04552 6.48858 5.28852 6.285 4.5H17.715C17.1618 6.66558 15.8258 8.54935 13.965 9.7875L12 11.1L10.035 9.7875ZM8.25 15.75C8.77814 15.1754 9.37808 14.6713 10.035 14.25L12 12.9L13.965 14.25C14.6219 14.6713 15.2219 15.1754 15.75 15.75H8.25Z" fill="#002EDB"/>
</svg>
